<?xml version="1.0" encoding="UTF-8"?>
<svg width="395.3px" height="189.2px" viewBox="0 0 395.3 189.2" version="1.1" xmlns="http://www.w3.org/2000/svg" xmlns:xlink="http://www.w3.org/1999/xlink">
    <title>kelly_green_nopad-1</title>
    <g id="Page-1" stroke="none" stroke-width="1" fill="none" fill-rule="evenodd">
        <g id="kelly_green_nopad-1" fill="#FFFFFF" fill-rule="nonzero">
            <polygon id="Path" points="29 75.4 78.7 144.2 115.1 144.2 59.7 75.4"></polygon>
            <polygon id="Path" points="59.7 75.4 59.7 75.3 111.5 6.5 77.4 6.5 29 75.3 29 75.4"></polygon>
            <rect id="Rectangle" x="0" y="6.5" width="27.6" height="137.7"></rect>
            <polygon id="Path" points="209.3 6.8 236.7 0 236.7 144.5 209.3 144.5"></polygon>
            <polygon id="Path" points="254 6.8 281.3 0 281.3 144.5 254 144.5"></polygon>
            <polygon id="Path" points="395.3 52.7 356.8 144.5 337.9 189.2 311.1 189.2 331.1 143.5 292.9 52.7 320.8 52.7 344.1 112.4 367.4 52.7"></polygon>
            <path d="M195.7,96.8 C195.7,69.2 178.7,50.6 153.4,50.6 C126.9,50.6 109,69.7 109,98.2 C109,127.4 127.6,146.2 156.3,146.2 C171.1,146.2 184.9,141.2 193.3,132.8 L194.9,131.2 L181.5,115 L179.5,116.8 C174.1,121.8 165.9,124.7 156.9,124.7 C144.5,124.7 136.2,118.4 133.5,107 L195.6,107 L195.7,96.8 L195.7,96.8 Z M134.2,86.8 C137.1,77.2 143.9,71.9 153.4,71.9 C162.2,71.9 168.4,77.2 170.8,86.8 L134.2,86.8 Z" id="Shape"></path>
            <path d="M376.7,137.4 L378.1,137.4 L380.5,141.3 L382.2,141.3 L379.6,137.3 C380.3,137.2 380.9,137 381.3,136.6 C381.8,136.2 382,135.6 382,134.8 C382,133.9 381.7,133.2 381.1,132.8 C380.5,132.4 379.7,132.2 378.6,132.2 L375.1,132.2 L375.1,141.2 L376.6,141.2 L376.7,137.4 L376.7,137.4 Z M376.7,136.1 L376.7,133.5 L378.6,133.5 C378.8,133.5 379.1,133.5 379.3,133.5 C379.5,133.5 379.8,133.6 380,133.7 L380.5,134.1 C380.6,134.3 380.7,134.5 380.7,134.8 C380.7,135.1 380.6,135.4 380.5,135.6 L380,136 C379.8,136.1 379.6,136.2 379.3,136.2 C379,136.2 378.8,136.2 378.5,136.2 L376.7,136.1 L376.7,136.1 Z M386,133.2 C385.6,132.2 385,131.3 384.2,130.6 C383.4,129.9 382.6,129.3 381.6,128.9 C380.6,128.5 379.6,128.3 378.5,128.3 C377.4,128.3 376.3,128.5 375.3,128.9 C374.3,129.3 373.4,129.8 372.6,130.6 C371.8,131.3 371.2,132.2 370.8,133.2 C370.4,134.2 370.1,135.3 370.1,136.5 C370.1,137.7 370.3,138.7 370.7,139.7 C371.1,140.7 371.7,141.6 372.4,142.3 C373.1,143 374,143.6 375,144 C376,144.4 377.1,144.6 378.4,144.6 C379.5,144.6 380.5,144.4 381.5,144 C382.5,143.6 383.4,143.1 384.1,142.3 C384.9,141.6 385.5,140.7 385.9,139.7 C386.3,138.7 386.6,137.6 386.6,136.4 C386.7,135.3 386.4,134.2 386,133.2 M384.4,139.3 C384.1,140.1 383.6,140.8 383,141.4 C382.4,142 381.7,142.5 380.9,142.8 C380.1,143.1 379.3,143.3 378.4,143.3 C377.4,143.3 376.5,143.1 375.7,142.8 C374.9,142.4 374.2,142 373.7,141.4 C373.1,140.8 372.7,140.1 372.4,139.3 C372.1,138.5 372,137.6 372,136.7 C372,135.7 372.2,134.8 372.5,134 C372.8,133.2 373.3,132.5 373.9,131.9 C374.5,131.3 375.2,130.8 376,130.5 C376.8,130.2 377.6,130 378.6,130 C379.5,130 380.3,130.2 381.1,130.5 C381.9,130.8 382.6,131.3 383.2,131.9 C383.8,132.5 384.2,133.2 384.6,134 C384.9,134.8 385.1,135.7 385.1,136.7 C384.9,137.6 384.7,138.5 384.4,139.3" id="Shape"></path>
        </g>
    </g>
</svg>